<?xml version="1.0" encoding="UTF-8"?>
<svg xmlns="http://www.w3.org/2000/svg" xmlns:xlink="http://www.w3.org/1999/xlink" width="182pt" height="108pt" viewBox="0 0 182 108" version="1.1">
<defs>
<clipPath id="clip1">
  <path d="M 3.90625 42.265625 L 118 42.265625 L 118 97.894531 L 3.90625 97.894531 Z M 3.90625 42.265625 "/>
</clipPath>
<clipPath id="clip2">
  <path d="M 3.90625 42.265625 L 119 42.265625 L 119 97.894531 L 3.90625 97.894531 Z M 3.90625 42.265625 "/>
</clipPath>
</defs>
<g id="surface1">
<path style=" stroke:none;fill-rule:evenodd;fill:rgb(17.298889%,15.699768%,14.498901%);fill-opacity:1;" d="M 42.46875 6.851563 L 42.738281 7.222656 L 42.90625 7.660156 L 42.941406 8.195313 L 42.941406 8.5 L 42.90625 8.667969 L 42.804688 8.902344 L 42.738281 9.035156 L 27.214844 9.003906 L 27.179688 8.769531 L 27.113281 8.5 L 27.046875 8.027344 L 27.082031 7.558594 L 27.214844 7.257813 L 27.25 7.089844 L 27.347656 6.921875 L 27.550781 6.652344 L 27.851563 6.382813 L 28.1875 6.148438 L 28.257813 6.113281 L 28.359375 6.046875 L 28.425781 6.011719 L 28.527344 5.945313 L 28.828125 5.777344 L 29.230469 5.574219 L 29.871094 5.339844 L 30.542969 5.207031 L 31.28125 5.070313 L 32.15625 4.972656 L 32.828125 4.9375 L 33.632813 4.902344 L 34.675781 4.9375 L 35.75 4.972656 L 36.554688 4.972656 L 37.261719 5.003906 L 37.96875 5.070313 L 38.808594 5.207031 L 39.480469 5.339844 L 40.050781 5.542969 L 40.621094 5.675781 L 41.226563 5.945313 L 41.59375 6.179688 L 42.132813 6.484375 Z M 15.621094 19.148438 L 10.652344 19.183594 L 9.878906 19.320313 L 9.171875 19.484375 L 8.5 19.789063 L 8.0625 20.023438 L 7.695313 20.226563 L 7.324219 20.527344 L 7.019531 20.898438 L 6.6875 21.335938 L 6.449219 21.871094 L 6.351563 22.34375 L 6.25 23.046875 L 6.25 23.484375 L 6.28125 23.957031 L 6.351563 24.460938 L 6.519531 24.996094 L 6.6875 25.464844 L 6.988281 25.835938 L 7.257813 26.238281 L 7.660156 26.644531 L 8.164063 26.980469 L 8.800781 27.382813 L 9.136719 27.550781 L 9.707031 27.785156 L 10.316406 27.953125 L 10.71875 28.019531 L 11.324219 28.054688 L 11.996094 28.019531 L 11.859375 27.617188 L 11.828125 27.148438 L 11.828125 26.339844 L 11.925781 25.902344 L 12.128906 25.367188 L 12.429688 24.792969 L 12.867188 24.289063 L 13.339844 23.886719 L 13.875 23.621094 L 14.449219 23.484375 L 15.121094 23.351563 L 15.691406 23.316406 L 16.195313 23.417969 L 16.664063 23.484375 L 17.066406 23.621094 L 17.570313 23.753906 L 17.941406 23.988281 L 18.34375 24.359375 L 18.546875 24.59375 L 18.746094 24.828125 L 19.015625 25.132813 L 19.183594 25.601563 L 19.285156 26.003906 L 19.351563 26.375 L 19.351563 26.675781 L 19.386719 27.113281 L 19.351563 27.550781 L 19.285156 27.917969 L 19.25 28.222656 L 19.015625 28.523438 L 18.816406 28.894531 L 18.679688 29.164063 L 18.648438 29.398438 L 19.050781 29.800781 L 19.488281 30.203125 L 20.359375 30.777344 L 21.703125 31.480469 L 18.34375 34.4375 L 17.808594 34.167969 L 17.371094 33.933594 L 16.867188 33.632813 L 16.398438 33.296875 L 15.992188 32.992188 L 15.589844 32.65625 L 15.253906 32.390625 L 15.019531 32.121094 L 14.617188 32.253906 L 14.042969 32.320313 L 13.507813 32.421875 L 12.96875 32.558594 L 12.195313 32.625 L 11.589844 32.625 L 11.054688 32.589844 L 9.878906 32.523438 L 8.769531 32.355469 L 7.726563 32.085938 L 6.785156 31.785156 L 5.914063 31.414063 L 5.140625 30.976563 L 4.398438 30.472656 L 3.761719 29.96875 L 3.191406 29.363281 L 2.6875 28.761719 L 2.25 28.121094 L 1.882813 27.449219 L 1.542969 26.746094 L 1.308594 26.003906 L 1.109375 25.296875 L 0.972656 24.558594 L 0.875 23.820313 L 0.875 22.34375 L 0.941406 21.636719 L 1.074219 20.929688 L 1.242188 20.257813 L 1.445313 19.621094 L 1.710938 19.015625 L 2.015625 18.410156 L 2.351563 17.90625 L 2.722656 17.402344 L 3.125 16.964844 L 3.5625 16.597656 L 4.03125 16.292969 L 4.535156 16.058594 L 5.039063 15.890625 L 6.046875 15.488281 L 6.71875 15.21875 L 7.558594 15.019531 L 8.296875 14.917969 L 9.039063 14.847656 L 11.828125 14.847656 L 11.828125 13.167969 L 10.078125 13.101563 L 0.46875 13.101563 L 0.4375 9.003906 L 6.484375 9.003906 L 8.164063 9.035156 L 5.777344 5.609375 L 10.046875 3.359375 L 13.304688 8.398438 L 12.296875 8.902344 L 15.320313 9.003906 L 15.523438 9.035156 L 12.769531 4.871094 L 16.933594 2.886719 L 20.261719 7.859375 L 18.816406 9.003906 L 21.941406 9.003906 L 21.636719 8.128906 L 21.535156 7.523438 L 21.570313 6.851563 L 21.773438 5.945313 L 22.074219 5.238281 L 22.511719 4.601563 L 22.949219 4.0625 L 23.554688 3.660156 L 24.125 3.191406 L 24.828125 2.855469 L 25.46875 2.519531 L 26.441406 2.148438 L 27.179688 1.914063 L 27.886719 1.746094 L 28.457031 1.542969 L 29.230469 1.410156 L 30.136719 1.242188 L 30.808594 1.105469 L 31.382813 1.074219 L 31.851563 1.074219 L 32.523438 1.007813 L 33.597656 0.972656 L 34.742188 0.9375 L 35.882813 0.9375 L 36.792969 1.007813 L 37.632813 1.007813 L 38.472656 1.105469 L 39.175781 1.105469 L 40.152344 1.242188 L 40.992188 1.410156 L 41.730469 1.542969 L 42.402344 1.679688 L 43.140625 1.878906 L 43.847656 2.148438 L 44.382813 2.351563 L 45.023438 2.6875 L 45.730469 3.089844 L 46.199219 3.425781 L 46.839844 3.894531 L 47.308594 4.46875 L 47.644531 5.003906 L 47.914063 5.441406 L 48.113281 6.011719 L 48.316406 6.683594 L 48.417969 7.1875 L 48.449219 7.660156 L 48.382813 8.128906 L 48.316406 8.5 L 48.28125 9.035156 L 75.160156 9.003906 L 75.160156 13.101563 L 65.417969 13.101563 L 65.417969 15.789063 L 65.855469 15.722656 L 66.324219 15.65625 L 67.265625 15.488281 L 67.972656 15.488281 L 68.644531 15.523438 L 69.316406 15.621094 L 69.953125 15.789063 L 70.59375 15.992188 L 71.164063 16.261719 L 71.734375 16.5625 L 72.273438 16.863281 L 72.777344 17.234375 L 73.214844 17.636719 L 73.617188 18.074219 L 73.984375 18.511719 L 74.324219 18.949219 L 74.589844 19.417969 L 74.792969 19.921875 L 74.925781 20.394531 L 75.128906 21.097656 L 75.332031 21.839844 L 75.5 22.441406 L 75.566406 22.847656 L 75.5 23.886719 L 75.429688 24.863281 L 75.398438 25.332031 L 75.332031 25.769531 L 75.261719 26.207031 L 75.128906 26.609375 L 75.027344 27.011719 L 74.859375 27.414063 L 74.726563 27.785156 L 74.558594 28.121094 L 74.1875 28.761719 L 73.785156 29.332031 L 73.347656 29.867188 L 72.878906 30.304688 L 72.40625 30.707031 L 71.902344 31.042969 L 71.367188 31.3125 L 70.863281 31.582031 L 70.324219 31.785156 L 69.785156 31.917969 L 69.25 32.050781 L 68.710938 32.152344 L 68.171875 32.1875 L 67.667969 32.21875 L 66.5625 27.851563 L 66.996094 27.71875 L 67.433594 27.582031 L 67.839844 27.382813 L 68.242188 27.148438 L 68.777344 26.945313 L 69.183594 26.609375 L 69.550781 26.238281 L 69.886719 25.667969 L 70.121094 25.230469 L 70.289063 24.726563 L 70.289063 23.621094 L 70.257813 23.015625 L 70.222656 22.609375 L 70.089844 22.140625 L 69.921875 21.738281 L 69.652344 21.433594 L 69.417969 21.066406 L 69.046875 20.695313 L 68.675781 20.394531 L 68.242188 20.257813 L 67.804688 20.15625 L 67.367188 20.125 L 66.796875 20.125 L 66.460938 20.15625 L 66.15625 20.257813 L 65.855469 20.359375 L 65.621094 20.527344 L 65.453125 20.59375 L 60.242188 21.164063 L 60.074219 20.929688 L 60.007813 20.832031 L 59.941406 20.59375 L 59.808594 20.359375 L 59.570313 20.191406 L 59.167969 19.957031 L 58.664063 19.824219 L 58.128906 19.789063 L 57.625 19.824219 L 57.152344 19.855469 L 56.683594 19.988281 L 56.144531 20.15625 L 55.84375 20.394531 L 55.539063 20.664063 L 55.339844 20.898438 L 55.105469 21.097656 L 54.933594 21.367188 L 54.800781 21.667969 L 54.632813 22.007813 L 54.566406 22.476563 L 54.53125 23.046875 L 54.464844 23.484375 L 54.53125 23.957031 L 54.597656 24.359375 L 54.765625 24.960938 L 55.003906 25.433594 L 55.273438 25.835938 L 55.507813 26.140625 L 55.777344 26.375 L 56.109375 26.644531 L 56.546875 26.808594 L 56.949219 26.945313 L 57.488281 27.011719 L 57.824219 27.046875 L 58.226563 27.046875 L 58.867188 26.945313 L 59.40625 26.746094 L 59.976563 26.441406 L 60.175781 26.039063 L 60.175781 25.535156 L 60.210938 21.164063 L 65.382813 20.59375 L 65.351563 33.53125 L 60.210938 33.53125 L 60.210938 31.113281 L 59.234375 31.582031 L 57.757813 31.785156 L 56.851563 31.75 L 56.109375 31.683594 L 55.273438 31.515625 L 54.464844 31.347656 L 53.792969 31.042969 L 53.355469 30.742188 L 52.582031 30.238281 L 52.179688 29.867188 L 51.640625 29.398438 L 51.207031 28.960938 L 50.769531 28.523438 L 50.464844 27.953125 L 50.128906 27.449219 L 49.828125 26.84375 L 49.59375 25.902344 L 49.492188 25.296875 L 49.492188 23.621094 L 49.558594 22.914063 L 49.625 22.308594 L 49.695313 21.871094 L 49.792969 21.300781 L 49.894531 20.527344 L 50.097656 19.921875 L 50.464844 19.082031 L 50.800781 18.546875 L 51.070313 18.039063 L 51.609375 17.4375 L 52.078125 17.035156 L 52.683594 16.53125 L 53.324219 16.160156 L 53.894531 15.957031 L 54.5 15.691406 L 55.171875 15.453125 L 55.742188 15.421875 L 56.515625 15.320313 L 57.320313 15.253906 L 58.058594 15.320313 L 58.765625 15.351563 L 59.503906 15.523438 L 59.90625 15.554688 L 60.277344 15.691406 L 60.3125 13.101563 L 48.148438 13.136719 L 48.148438 33.566406 L 42.703125 33.496094 L 42.703125 21.871094 L 35.582031 21.871094 L 35.078125 21.9375 L 34.742188 22.074219 L 34.539063 22.308594 L 34.304688 22.542969 L 34.269531 22.847656 L 34.269531 23.148438 L 34.304688 23.417969 L 34.539063 23.855469 L 34.84375 24.15625 L 35.3125 24.390625 L 35.851563 24.460938 L 36.355469 24.359375 L 36.824219 24.222656 L 37.261719 23.957031 L 37.53125 23.621094 L 37.898438 23.082031 L 41.058594 26.308594 L 40.992188 26.441406 L 40.757813 26.675781 L 40.65625 26.84375 L 40.488281 27.078125 L 39.984375 27.550781 L 39.714844 27.820313 L 39.511719 27.953125 L 39.277344 28.121094 L 39.042969 28.324219 L 38.738281 28.492188 L 38.539063 28.589844 L 38.136719 28.761719 L 37.800781 28.894531 L 37.464844 28.996094 L 37.160156 29.09375 L 36.824219 29.128906 L 36.523438 29.164063 L 36.117188 29.195313 L 35.515625 29.195313 L 34.875 29.128906 L 34.371094 29.09375 L 33.867188 28.996094 L 33.363281 28.828125 L 33.027344 28.589844 L 32.589844 28.457031 L 32.222656 28.222656 L 31.785156 27.886719 L 31.414063 27.617188 L 30.976563 27.179688 L 30.574219 26.675781 L 30.304688 26.308594 L 30.003906 25.804688 L 29.703125 25.164063 L 29.566406 24.59375 L 29.46875 24.191406 L 29.367188 23.621094 L 29.367188 22.308594 L 29.398438 21.839844 L 29.46875 21.265625 L 29.636719 20.730469 L 29.734375 20.394531 L 29.871094 20.089844 L 30.238281 19.519531 L 30.472656 19.25 L 30.808594 18.746094 L 31.414063 18.210938 L 31.953125 17.839844 L 32.355469 17.671875 L 32.726563 17.46875 L 33.230469 17.335938 L 33.835938 17.203125 L 34.4375 17.101563 L 42.636719 17.101563 L 42.636719 13.136719 L 28.324219 13.136719 L 28.289063 33.664063 L 23.015625 33.597656 L 23.050781 13.101563 L 17 13.101563 L 17 19.148438 L 15.621094 19.148438 "/>
<path style=" stroke:none;fill-rule:evenodd;fill:rgb(17.298889%,15.699768%,14.498901%);fill-opacity:1;" d="M 164.738281 13.136719 L 161.785156 13.136719 L 161.785156 23.183594 L 161.882813 23.417969 L 162.019531 23.652344 L 162.1875 23.785156 L 162.386719 23.921875 L 162.589844 24.023438 L 162.789063 24.121094 L 162.960938 24.15625 L 163.160156 24.191406 L 163.394531 24.15625 L 163.664063 24.089844 L 163.933594 23.988281 L 164.167969 23.855469 L 164.335938 23.71875 L 164.503906 23.550781 L 164.570313 23.453125 L 164.671875 23.28125 L 164.707031 23.113281 Z M 106.445313 33.53125 L 101.371094 33.566406 L 101.371094 21.46875 L 99.152344 21.46875 L 99.457031 21.871094 L 99.65625 22.34375 L 99.824219 22.8125 L 100.027344 23.382813 L 100.160156 23.886719 L 100.261719 24.257813 L 100.363281 24.695313 L 100.394531 25.097656 L 100.394531 25.804688 L 100.363281 26.140625 L 100.363281 26.609375 L 100.261719 26.945313 L 100.261719 27.347656 L 100.09375 27.71875 L 99.992188 28.085938 L 99.789063 28.457031 L 99.625 28.828125 L 99.421875 29.230469 L 99.253906 29.566406 L 99.117188 29.769531 L 98.984375 30.003906 L 98.75 30.339844 L 98.515625 30.605469 L 98.246094 30.878906 L 97.910156 31.179688 L 97.574219 31.414063 L 97.269531 31.582031 L 97.035156 31.714844 L 96.597656 31.917969 L 96.195313 32.121094 L 95.792969 32.320313 L 95.355469 32.523438 L 94.851563 32.691406 L 94.414063 32.824219 L 93.777344 32.960938 L 93.136719 32.992188 L 92.632813 33.027344 L 91.761719 32.894531 L 90.921875 32.691406 L 90.183594 32.488281 L 89.476563 32.289063 L 88.871094 32.050781 L 88.300781 31.816406 L 87.761719 31.546875 L 87.292969 31.28125 L 86.890625 30.976563 L 86.484375 30.675781 L 86.148438 30.339844 L 85.847656 30.035156 L 85.542969 29.667969 L 85.277344 29.332031 L 85.039063 28.960938 L 84.804688 28.589844 L 83.964844 27.078125 L 83.023438 25.5 L 82.757813 25.097656 L 82.453125 24.726563 L 82.117188 24.324219 L 81.75 23.921875 L 81.3125 23.550781 L 80.875 23.148438 L 80.371094 22.777344 L 79.800781 22.410156 L 80.371094 22.171875 L 81.714844 21.570313 L 82.417969 21.234375 L 83.125 20.929688 L 83.796875 20.664063 L 84.367188 20.394531 L 84.871094 20.226563 L 85.78125 21.265625 L 86.71875 22.375 L 89.542969 27.011719 L 89.945313 27.28125 L 90.316406 27.515625 L 90.652344 27.71875 L 91.019531 27.886719 L 91.390625 28.019531 L 91.726563 28.085938 L 92.164063 28.121094 L 92.566406 28.054688 L 92.9375 27.988281 L 93.339844 27.820313 L 93.742188 27.683594 L 94.078125 27.480469 L 94.449219 27.214844 L 94.75 26.808594 L 95.019531 26.308594 L 95.222656 25.804688 L 95.289063 25.367188 L 95.289063 24.929688 L 95.1875 24.527344 L 95.085938 24.089844 L 94.953125 23.585938 L 94.785156 23.183594 L 94.617188 22.710938 L 94.480469 22.273438 L 94.347656 21.9375 L 94.316406 21.703125 L 94.179688 21.46875 L 90.148438 21.46875 L 90.148438 16.699219 L 101.539063 16.699219 L 101.570313 13.136719 L 83.898438 13.070313 L 83.832031 9.003906 L 181.003906 8.96875 L 180.933594 13.167969 L 177.542969 13.070313 L 177.542969 33.496094 L 171.660156 33.53125 L 171.660156 32.1875 L 171.695313 29.667969 L 171.695313 16.125 L 171.660156 13.976563 L 171.628906 13.167969 L 169.8125 13.070313 L 169.847656 23.484375 L 169.8125 24.15625 L 169.644531 24.695313 L 169.476563 25.164063 L 169.074219 25.871094 L 168.703125 26.476563 L 168.101563 27.113281 L 167.394531 27.582031 L 166.824219 27.988281 L 166.152344 28.355469 L 165.445313 28.523438 L 164.839844 28.691406 L 164.167969 28.726563 L 163.394531 28.792969 L 162.757813 28.726563 L 162.21875 28.761719 L 161.449219 28.589844 L 160.773438 28.421875 L 160.171875 28.289063 L 159.800781 28.085938 L 159.363281 27.851563 L 158.996094 27.652344 L 158.558594 27.382813 L 158.121094 27.011719 L 157.886719 26.746094 L 157.582031 26.375 L 157.28125 26.039063 L 157.078125 25.601563 L 156.84375 25.164063 L 156.710938 24.695313 L 156.609375 24.089844 L 156.644531 13.167969 L 152.609375 13.203125 L 153.214844 14.078125 L 153.6875 14.714844 L 154.054688 15.320313 L 154.289063 15.824219 L 154.558594 16.359375 L 154.761719 17.101563 L 154.964844 17.941406 L 154.964844 18.613281 L 154.828125 19.25 L 154.828125 19.6875 L 154.726563 20.226563 L 154.628906 20.796875 L 154.425781 21.433594 L 154.089844 22.171875 L 153.519531 22.914063 L 152.945313 23.417969 L 152.441406 23.957031 L 151.503906 24.425781 L 150.394531 24.828125 L 148.78125 25.0625 L 147.335938 25.097656 L 148.140625 26.308594 L 148.882813 26.945313 L 149.554688 27.652344 L 150.257813 28.324219 L 150.996094 28.894531 L 151.871094 29.632813 L 152.878906 30.203125 L 153.820313 30.84375 L 150.226563 33.496094 L 148.914063 32.925781 L 147.972656 32.289063 L 147.4375 31.917969 L 146.933594 31.515625 L 146.09375 30.675781 L 145.589844 30.203125 L 145.015625 29.734375 L 144.445313 29.128906 L 143.941406 28.421875 L 143.304688 27.515625 L 142.5625 26.542969 L 142.128906 25.734375 L 141.453125 24.628906 L 141.121094 23.886719 L 140.816406 23.28125 L 140.480469 22.679688 L 140.277344 22.039063 L 140.046875 21.433594 L 139.742188 20.730469 L 139.640625 20.226563 L 139.40625 19.621094 L 139.203125 18.914063 L 139.003906 18.277344 L 138.867188 17.636719 L 138.734375 16.933594 L 144.175781 16.898438 L 144.679688 19.824219 L 144.847656 20.058594 L 145.117188 20.5625 L 145.621094 20.898438 L 146.226563 21.132813 L 146.964844 21.132813 L 147.636719 21.066406 L 148.34375 20.832031 L 148.949219 20.527344 L 149.386719 20.058594 L 149.6875 19.484375 L 149.753906 18.746094 L 149.820313 18.144531 L 149.753906 17.503906 L 149.519531 16.863281 L 149.148438 16.195313 L 148.949219 15.722656 L 148.613281 15.285156 L 148.277344 14.816406 L 147.839844 14.210938 L 147.167969 13.875 L 146.394531 13.503906 L 145.621094 13.101563 L 136.179688 13.136719 L 136.179688 33.566406 L 130.839844 33.566406 L 130.90625 13.101563 L 127.140625 13.101563 L 127.578125 13.640625 L 127.882813 14.210938 L 128.117188 14.679688 L 128.351563 15.1875 L 128.554688 15.789063 L 128.789063 16.328125 L 128.957031 16.898438 L 129.125 17.402344 L 129.191406 17.941406 L 129.226563 18.476563 L 129.292969 18.882813 L 129.324219 19.351563 L 129.257813 19.921875 L 129.292969 20.394531 L 129.292969 21.03125 L 129.257813 21.636719 L 129.191406 22.171875 L 129.089844 22.578125 L 128.988281 23.082031 L 128.820313 23.519531 L 128.6875 23.921875 L 128.519531 24.359375 L 128.417969 24.792969 L 128.21875 25.164063 L 128.050781 25.566406 L 127.882813 25.9375 L 127.644531 26.308594 L 127.378906 26.710938 L 127.007813 27.179688 L 126.738281 27.550781 L 126.300781 27.953125 L 125.964844 28.257813 L 125.527344 28.589844 L 124.925781 28.894531 L 124.320313 29.195313 L 123.613281 29.464844 L 122.773438 29.699219 L 122 29.699219 L 121.394531 29.734375 L 120.992188 29.699219 L 120.523438 29.597656 L 120.019531 29.53125 L 119.515625 29.332031 L 119.144531 29.230469 L 118.773438 28.996094 L 118.40625 28.792969 L 118.070313 28.589844 L 117.835938 28.390625 L 117.566406 28.1875 L 117.429688 28.019531 L 117.128906 27.71875 L 116.929688 27.382813 L 116.757813 27.078125 L 116.589844 26.777344 L 116.390625 26.375 L 116.222656 25.972656 L 116.1875 24.460938 L 116.152344 23.886719 L 116.324219 23.382813 L 116.523438 22.542969 L 116.859375 21.871094 L 117.261719 21.265625 L 117.566406 20.898438 L 117.867188 20.460938 L 118.339844 20.089844 L 118.773438 19.824219 L 123.714844 21.199219 L 123.34375 21.503906 L 122.90625 21.839844 L 122.335938 22.308594 L 121.867188 22.746094 L 121.597656 23.214844 L 121.394531 23.621094 L 121.261719 24.054688 L 121.394531 24.558594 L 121.867188 24.726563 L 122.402344 24.695313 L 122.875 24.425781 L 123.144531 24.191406 L 123.3125 23.921875 L 123.511719 23.550781 L 123.714844 23.046875 L 123.914063 22.644531 L 124.085938 22.140625 L 124.21875 21.601563 L 124.285156 21.265625 L 124.351563 20.628906 L 124.351563 20.058594 L 124.320313 19.386719 L 124.21875 18.648438 L 124.050781 17.875 L 123.746094 17.167969 L 123.378906 16.597656 L 123.007813 15.890625 L 122.503906 15.1875 L 122.136719 14.714844 L 121.730469 14.277344 L 121.394531 13.941406 L 121.058594 13.773438 L 120.859375 13.640625 L 120.554688 13.503906 L 120.386719 13.40625 L 120.117188 13.304688 L 119.851563 13.136719 L 114.640625 13.136719 L 114.675781 33.566406 L 109.433594 33.53125 L 109.46875 13.101563 L 106.445313 13.136719 L 106.445313 33.53125 "/>
<path style=" stroke:none;fill-rule:evenodd;fill:rgb(92.89856%,10.998535%,14.099121%);fill-opacity:1;" d="M 3.90625 42.265625 L 178.683594 42.265625 L 178.683594 97.894531 L 3.90625 97.894531 L 3.90625 42.265625 "/>
<g clip-path="url(#clip1)" clip-rule="nonzero">
<path style=" stroke:none;fill-rule:evenodd;fill:rgb(13.699341%,12.199402%,12.5%);fill-opacity:1;" d="M 3.90625 42.265625 L 117.953125 42.265625 L 117.953125 97.894531 L 3.90625 97.894531 L 3.90625 42.265625 "/>
</g>
<path style=" stroke:none;fill-rule:nonzero;fill:rgb(100%,100%,100%);fill-opacity:1;" d="M 14.050781 46.335938 L 26.941406 46.335938 L 33.132813 61.984375 C 34.976563 66.640625 36.386719 70.664063 37.371094 74.0625 L 38.035156 74.0625 L 37.726563 65.710938 L 37.726563 46.335938 L 49.871094 46.335938 L 49.871094 95.730469 L 37.023438 95.730469 L 30.832031 80.082031 C 28.984375 75.425781 27.578125 71.390625 26.59375 67.96875 L 25.890625 67.96875 L 26.195313 76.332031 L 26.195313 95.730469 L 14.050781 95.730469 Z M 72.910156 61.210938 C 78.027344 61.210938 82.214844 62.734375 85.480469 65.804688 C 88.75 68.875 90.382813 73.179688 90.382813 78.703125 C 90.382813 83.933594 88.816406 88.214844 85.679688 91.539063 C 82.542969 94.851563 78.265625 96.503906 72.871094 96.503906 C 67.476563 96.503906 63.265625 94.875 60.261719 91.585938 C 57.246094 88.3125 55.746094 84.128906 55.746094 79.050781 C 55.746094 73.769531 57.328125 69.46875 60.476563 66.167969 C 63.625 62.855469 67.769531 61.210938 72.910156 61.210938 Z M 73.03125 69.84375 C 71.503906 69.84375 70.347656 70.589844 69.5625 72.089844 C 68.792969 73.589844 68.394531 75.835938 68.394531 78.847656 C 68.394531 81.796875 68.78125 84.007813 69.550781 85.496094 C 70.308594 86.980469 71.464844 87.730469 72.992188 87.730469 C 74.546875 87.730469 75.714844 86.992188 76.472656 85.519531 C 77.242188 84.042969 77.628906 81.832031 77.628906 78.871094 C 77.628906 75.847656 77.242188 73.589844 76.472656 72.089844 C 75.714844 70.589844 74.558594 69.84375 73.03125 69.84375 Z M 102.835938 85.253906 C 104.679688 85.253906 106.195313 85.808594 107.378906 86.921875 C 108.558594 88.019531 109.144531 89.351563 109.144531 90.886719 C 109.144531 92.445313 108.546875 93.761719 107.351563 94.863281 C 106.15625 95.960938 104.734375 96.503906 103.074219 96.503906 C 101.4375 96.503906 100.03125 95.960938 98.835938 94.863281 C 97.636719 93.761719 97.039063 92.457031 97.039063 90.921875 C 97.039063 89.3125 97.652344 87.960938 98.875 86.882813 C 100.082031 85.796875 101.410156 85.253906 102.835938 85.253906 "/>
<g clip-path="url(#clip2)" clip-rule="nonzero">
<path style="fill:none;stroke-width:2.16;stroke-linecap:butt;stroke-linejoin:miter;stroke:rgb(13.699341%,12.199402%,12.5%);stroke-opacity:1;stroke-miterlimit:2.61313;" d="M 39.0625 657.34375 L 1179.53125 657.34375 L 1179.53125 101.054688 L 39.0625 101.054688 Z M 39.0625 657.34375 " transform="matrix(0.1,0,0,-0.1,0,108)"/>
</g>
<path style=" stroke:none;fill-rule:nonzero;fill:rgb(100%,100%,100%);fill-opacity:1;" d="M 149.363281 46.691406 L 158.621094 46.691406 L 158.621094 93.722656 L 147.882813 93.722656 L 147.882813 63.816406 L 140.476563 63.816406 L 140.476563 55.710938 L 142.207031 55.710938 C 144.453125 55.710938 146.210938 55.082031 147.472656 53.84375 C 148.726563 52.59375 149.363281 50.742188 149.363281 48.277344 L 149.363281 46.691406 "/>
<path style=" stroke:none;fill-rule:nonzero;fill:rgb(13.699341%,12.199402%,12.5%);fill-opacity:1;" d="M 3.726563 107.632813 L 3.726563 99.808594 L 5.304688 99.808594 L 5.304688 107.632813 L 3.726563 107.632813 "/>
<path style=" stroke:none;fill-rule:nonzero;fill:rgb(13.699341%,12.199402%,12.5%);fill-opacity:1;" d="M 6.828125 107.632813 L 6.828125 99.808594 L 8.363281 99.808594 L 11.566406 105.03125 L 11.566406 99.808594 L 13.035156 99.808594 L 13.035156 107.632813 L 11.449219 107.632813 L 8.292969 102.53125 L 8.292969 107.632813 L 6.828125 107.632813 "/>
<path style=" stroke:none;fill-rule:nonzero;fill:rgb(13.699341%,12.199402%,12.5%);fill-opacity:1;" d="M 14.699219 99.808594 L 17.585938 99.808594 C 18.234375 99.808594 18.730469 99.859375 19.074219 99.957031 C 19.53125 100.09375 19.925781 100.332031 20.25 100.679688 C 20.578125 101.023438 20.828125 101.445313 21 101.945313 C 21.167969 102.445313 21.253906 103.0625 21.253906 103.796875 C 21.253906 104.4375 21.175781 104.996094 21.015625 105.460938 C 20.820313 106.03125 20.539063 106.488281 20.175781 106.839844 C 19.902344 107.109375 19.535156 107.316406 19.066406 107.464844 C 18.71875 107.578125 18.253906 107.632813 17.667969 107.632813 L 14.699219 107.632813 Z M 16.277344 101.132813 L 16.277344 106.3125 L 17.457031 106.3125 C 17.898438 106.3125 18.214844 106.289063 18.410156 106.238281 C 18.667969 106.175781 18.878906 106.066406 19.050781 105.914063 C 19.21875 105.761719 19.355469 105.507813 19.464844 105.160156 C 19.570313 104.808594 19.625 104.328125 19.625 103.726563 C 19.625 103.121094 19.570313 102.65625 19.464844 102.332031 C 19.355469 102.011719 19.207031 101.757813 19.015625 101.574219 C 18.820313 101.394531 18.578125 101.273438 18.28125 101.207031 C 18.0625 101.15625 17.632813 101.132813 16.984375 101.132813 L 16.277344 101.132813 "/>
<path style=" stroke:none;fill-rule:nonzero;fill:rgb(13.699341%,12.199402%,12.5%);fill-opacity:1;" d="M 22.546875 107.632813 L 22.546875 99.808594 L 24.125 99.808594 L 24.125 107.632813 L 22.546875 107.632813 "/>
<path style=" stroke:none;fill-rule:nonzero;fill:rgb(13.699341%,12.199402%,12.5%);fill-opacity:1;" d="M 32.683594 107.632813 L 30.964844 107.632813 L 30.28125 105.855469 L 27.15625 105.855469 L 26.511719 107.632813 L 24.835938 107.632813 L 27.882813 99.808594 L 29.550781 99.808594 Z M 29.777344 104.539063 L 28.699219 101.632813 L 27.640625 104.539063 Z M 29.777344 104.539063 "/>
<path style=" stroke:none;fill-rule:nonzero;fill:rgb(13.699341%,12.199402%,12.5%);fill-opacity:1;" d="M 33.5 102.589844 L 33.21875 101.132813 L 33.21875 99.808594 L 34.851563 99.808594 L 34.851563 101.132813 L 34.605469 102.589844 L 33.5 102.589844 "/>
<path style=" stroke:none;fill-rule:nonzero;fill:rgb(13.699341%,12.199402%,12.5%);fill-opacity:1;" d="M 35.722656 105.085938 L 37.257813 104.9375 C 37.347656 105.453125 37.535156 105.832031 37.820313 106.074219 C 38.101563 106.316406 38.484375 106.4375 38.964844 106.4375 C 39.472656 106.4375 39.855469 106.328125 40.113281 106.113281 C 40.371094 105.898438 40.503906 105.648438 40.503906 105.359375 C 40.503906 105.171875 40.449219 105.015625 40.339844 104.886719 C 40.230469 104.757813 40.042969 104.644531 39.769531 104.546875 C 39.585938 104.484375 39.164063 104.371094 38.507813 104.207031 C 37.660156 103.996094 37.066406 103.738281 36.722656 103.433594 C 36.242188 103.003906 36.003906 102.476563 36.003906 101.859375 C 36.003906 101.460938 36.117188 101.089844 36.34375 100.738281 C 36.570313 100.394531 36.894531 100.128906 37.320313 99.949219 C 37.746094 99.769531 38.257813 99.675781 38.855469 99.675781 C 39.839844 99.675781 40.578125 99.890625 41.074219 100.320313 C 41.570313 100.753906 41.832031 101.328125 41.855469 102.046875 L 40.277344 102.113281 C 40.210938 101.710938 40.066406 101.421875 39.84375 101.25 C 39.621094 101.070313 39.285156 100.984375 38.84375 100.984375 C 38.382813 100.984375 38.023438 101.078125 37.765625 101.265625 C 37.597656 101.386719 37.511719 101.550781 37.511719 101.75 C 37.511719 101.9375 37.59375 102.09375 37.75 102.226563 C 37.945313 102.394531 38.429688 102.570313 39.199219 102.75 C 39.96875 102.929688 40.535156 103.117188 40.90625 103.3125 C 41.273438 103.507813 41.558594 103.769531 41.769531 104.109375 C 41.976563 104.445313 42.082031 104.859375 42.082031 105.355469 C 42.082031 105.800781 41.957031 106.222656 41.707031 106.613281 C 41.457031 107.003906 41.105469 107.296875 40.652344 107.484375 C 40.195313 107.675781 39.628906 107.769531 38.949219 107.769531 C 37.960938 107.769531 37.199219 107.542969 36.671875 107.085938 C 36.140625 106.628906 35.824219 105.960938 35.722656 105.085938 "/>
<path style=" stroke:none;fill-rule:nonzero;fill:rgb(13.699341%,12.199402%,12.5%);fill-opacity:1;" d="M 46.449219 99.808594 L 49.578125 99.808594 C 50.195313 99.808594 50.660156 99.835938 50.964844 99.886719 C 51.269531 99.9375 51.539063 100.046875 51.78125 100.210938 C 52.019531 100.375 52.21875 100.589844 52.378906 100.863281 C 52.539063 101.136719 52.617188 101.441406 52.617188 101.777344 C 52.617188 102.144531 52.519531 102.480469 52.324219 102.789063 C 52.125 103.09375 51.855469 103.324219 51.519531 103.476563 C 51.996094 103.613281 52.363281 103.851563 52.617188 104.183594 C 52.875 104.519531 53.003906 104.914063 53.003906 105.363281 C 53.003906 105.71875 52.921875 106.066406 52.753906 106.402344 C 52.589844 106.738281 52.363281 107.007813 52.078125 107.207031 C 51.792969 107.40625 51.4375 107.53125 51.019531 107.578125 C 50.757813 107.605469 50.121094 107.625 49.113281 107.632813 L 46.449219 107.632813 Z M 48.03125 101.113281 L 48.03125 102.921875 L 49.066406 102.921875 C 49.679688 102.921875 50.0625 102.910156 50.214844 102.894531 C 50.484375 102.863281 50.695313 102.769531 50.851563 102.613281 C 51.003906 102.460938 51.082031 102.253906 51.082031 102.003906 C 51.082031 101.761719 51.015625 101.5625 50.882813 101.414063 C 50.75 101.261719 50.550781 101.167969 50.289063 101.140625 C 50.132813 101.121094 49.679688 101.113281 48.9375 101.113281 Z M 48.03125 104.222656 L 48.03125 106.3125 L 49.492188 106.3125 C 50.0625 106.3125 50.421875 106.300781 50.574219 106.265625 C 50.808594 106.222656 51 106.117188 51.148438 105.953125 C 51.296875 105.789063 51.371094 105.566406 51.371094 105.289063 C 51.371094 105.054688 51.3125 104.855469 51.199219 104.691406 C 51.085938 104.527344 50.921875 104.40625 50.707031 104.332031 C 50.492188 104.257813 50.023438 104.222656 49.304688 104.222656 L 48.03125 104.222656 "/>
<path style=" stroke:none;fill-rule:nonzero;fill:rgb(13.699341%,12.199402%,12.5%);fill-opacity:1;" d="M 54.339844 107.632813 L 54.339844 99.808594 L 60.136719 99.808594 L 60.136719 101.132813 L 55.917969 101.132813 L 55.917969 102.867188 L 59.84375 102.867188 L 59.84375 104.183594 L 55.917969 104.183594 L 55.917969 106.3125 L 60.285156 106.3125 L 60.285156 107.632813 L 54.339844 107.632813 "/>
<path style=" stroke:none;fill-rule:nonzero;fill:rgb(13.699341%,12.199402%,12.5%);fill-opacity:1;" d="M 61.226563 105.085938 L 62.765625 104.9375 C 62.855469 105.453125 63.042969 105.832031 63.328125 106.074219 C 63.609375 106.316406 63.988281 106.4375 64.46875 106.4375 C 64.976563 106.4375 65.363281 106.328125 65.617188 106.113281 C 65.878906 105.898438 66.007813 105.648438 66.007813 105.359375 C 66.007813 105.171875 65.953125 105.015625 65.84375 104.886719 C 65.734375 104.757813 65.546875 104.644531 65.273438 104.546875 C 65.089844 104.484375 64.667969 104.371094 64.011719 104.207031 C 63.164063 103.996094 62.570313 103.738281 62.230469 103.433594 C 61.75 103.003906 61.507813 102.476563 61.507813 101.859375 C 61.507813 101.460938 61.621094 101.089844 61.847656 100.738281 C 62.074219 100.394531 62.398438 100.128906 62.824219 99.949219 C 63.25 99.769531 63.761719 99.675781 64.363281 99.675781 C 65.347656 99.675781 66.082031 99.890625 66.582031 100.320313 C 67.078125 100.753906 67.335938 101.328125 67.363281 102.046875 L 65.78125 102.113281 C 65.714844 101.710938 65.570313 101.421875 65.347656 101.25 C 65.125 101.070313 64.792969 100.984375 64.347656 100.984375 C 63.890625 100.984375 63.527344 101.078125 63.269531 101.265625 C 63.101563 101.386719 63.019531 101.550781 63.019531 101.75 C 63.019531 101.9375 63.097656 102.09375 63.253906 102.226563 C 63.453125 102.394531 63.9375 102.570313 64.707031 102.75 C 65.472656 102.929688 66.042969 103.117188 66.410156 103.3125 C 66.777344 103.507813 67.066406 103.769531 67.273438 104.109375 C 67.480469 104.445313 67.585938 104.859375 67.585938 105.355469 C 67.585938 105.800781 67.460938 106.222656 67.214844 106.613281 C 66.964844 107.003906 66.613281 107.296875 66.15625 107.484375 C 65.703125 107.675781 65.132813 107.769531 64.453125 107.769531 C 63.464844 107.769531 62.707031 107.542969 62.175781 107.085938 C 61.644531 106.628906 61.328125 105.960938 61.226563 105.085938 "/>
<path style=" stroke:none;fill-rule:nonzero;fill:rgb(13.699341%,12.199402%,12.5%);fill-opacity:1;" d="M 70.675781 107.632813 L 70.675781 101.132813 L 68.355469 101.132813 L 68.355469 99.808594 L 74.570313 99.808594 L 74.570313 101.132813 L 72.257813 101.132813 L 72.257813 107.632813 L 70.675781 107.632813 "/>
<path style=" stroke:none;fill-rule:nonzero;fill:rgb(13.699341%,12.199402%,12.5%);fill-opacity:1;" d="M 78.628906 107.632813 L 78.628906 99.808594 L 81.957031 99.808594 C 82.792969 99.808594 83.398438 99.878906 83.777344 100.019531 C 84.15625 100.160156 84.460938 100.410156 84.6875 100.769531 C 84.914063 101.128906 85.027344 101.539063 85.027344 102.003906 C 85.027344 102.589844 84.855469 103.074219 84.511719 103.457031 C 84.167969 103.839844 83.648438 104.082031 82.964844 104.179688 C 83.304688 104.378906 83.589844 104.597656 83.808594 104.835938 C 84.03125 105.074219 84.332031 105.496094 84.707031 106.105469 L 85.664063 107.632813 L 83.777344 107.632813 L 82.632813 105.929688 C 82.226563 105.320313 81.949219 104.9375 81.800781 104.78125 C 81.652344 104.621094 81.492188 104.511719 81.324219 104.453125 C 81.15625 104.394531 80.894531 104.367188 80.53125 104.367188 L 80.210938 104.367188 L 80.210938 107.632813 Z M 80.210938 103.117188 L 81.378906 103.117188 C 82.136719 103.117188 82.609375 103.085938 82.800781 103.023438 C 82.988281 102.957031 83.132813 102.847656 83.242188 102.691406 C 83.347656 102.535156 83.402344 102.339844 83.402344 102.105469 C 83.402344 101.839844 83.332031 101.628906 83.191406 101.46875 C 83.050781 101.304688 82.851563 101.203125 82.59375 101.160156 C 82.46875 101.144531 82.082031 101.132813 81.441406 101.132813 L 80.210938 101.132813 L 80.210938 103.117188 "/>
<path style=" stroke:none;fill-rule:nonzero;fill:rgb(13.699341%,12.199402%,12.5%);fill-opacity:1;" d="M 86.519531 107.632813 L 86.519531 99.808594 L 92.316406 99.808594 L 92.316406 101.132813 L 88.097656 101.132813 L 88.097656 102.867188 L 92.023438 102.867188 L 92.023438 104.183594 L 88.097656 104.183594 L 88.097656 106.3125 L 92.46875 106.3125 L 92.46875 107.632813 L 86.519531 107.632813 "/>
<path style=" stroke:none;fill-rule:nonzero;fill:rgb(13.699341%,12.199402%,12.5%);fill-opacity:1;" d="M 100.859375 107.632813 L 99.140625 107.632813 L 98.457031 105.855469 L 95.332031 105.855469 L 94.6875 107.632813 L 93.011719 107.632813 L 96.058594 99.808594 L 97.726563 99.808594 Z M 97.953125 104.539063 L 96.875 101.632813 L 95.816406 104.539063 Z M 97.953125 104.539063 "/>
<path style=" stroke:none;fill-rule:nonzero;fill:rgb(13.699341%,12.199402%,12.5%);fill-opacity:1;" d="M 101.691406 99.808594 L 104.578125 99.808594 C 105.230469 99.808594 105.726563 99.859375 106.066406 99.957031 C 106.527344 100.09375 106.921875 100.332031 107.246094 100.679688 C 107.574219 101.023438 107.824219 101.445313 107.996094 101.945313 C 108.164063 102.445313 108.25 103.0625 108.25 103.796875 C 108.25 104.4375 108.171875 104.996094 108.007813 105.460938 C 107.8125 106.03125 107.535156 106.488281 107.171875 106.839844 C 106.898438 107.109375 106.527344 107.316406 106.0625 107.464844 C 105.714844 107.578125 105.246094 107.632813 104.664063 107.632813 L 101.691406 107.632813 Z M 103.273438 101.132813 L 103.273438 106.3125 L 104.449219 106.3125 C 104.890625 106.3125 105.210938 106.289063 105.40625 106.238281 C 105.660156 106.175781 105.875 106.066406 106.042969 105.914063 C 106.214844 105.761719 106.351563 105.507813 106.457031 105.160156 C 106.5625 104.808594 106.617188 104.328125 106.617188 103.726563 C 106.617188 103.121094 106.5625 102.65625 106.457031 102.332031 C 106.351563 102.011719 106.199219 101.757813 106.011719 101.574219 C 105.816406 101.394531 105.574219 101.273438 105.277344 101.207031 C 105.058594 101.15625 104.625 101.132813 103.980469 101.132813 L 103.273438 101.132813 "/>
<path style=" stroke:none;fill-rule:nonzero;fill:rgb(13.699341%,12.199402%,12.5%);fill-opacity:1;" d="M 112.628906 107.632813 L 112.628906 99.808594 L 114.210938 99.808594 L 114.210938 102.886719 L 117.304688 102.886719 L 117.304688 99.808594 L 118.882813 99.808594 L 118.882813 107.632813 L 117.304688 107.632813 L 117.304688 104.210938 L 114.210938 104.210938 L 114.210938 107.632813 L 112.628906 107.632813 "/>
<path style=" stroke:none;fill-rule:nonzero;fill:rgb(13.699341%,12.199402%,12.5%);fill-opacity:1;" d="M 120.46875 107.632813 L 120.46875 99.808594 L 122.046875 99.808594 L 122.046875 107.632813 L 120.46875 107.632813 "/>
<path style=" stroke:none;fill-rule:nonzero;fill:rgb(13.699341%,12.199402%,12.5%);fill-opacity:1;" d="M 123.566406 107.632813 L 123.566406 99.808594 L 125.105469 99.808594 L 128.308594 105.03125 L 128.308594 99.808594 L 129.773438 99.808594 L 129.773438 107.632813 L 128.1875 107.632813 L 125.035156 102.53125 L 125.035156 107.632813 L 123.566406 107.632813 "/>
<path style=" stroke:none;fill-rule:nonzero;fill:rgb(13.699341%,12.199402%,12.5%);fill-opacity:1;" d="M 131.441406 99.808594 L 134.328125 99.808594 C 134.976563 99.808594 135.472656 99.859375 135.8125 99.957031 C 136.273438 100.09375 136.667969 100.332031 136.992188 100.679688 C 137.320313 101.023438 137.570313 101.445313 137.742188 101.945313 C 137.910156 102.445313 137.996094 103.0625 137.996094 103.796875 C 137.996094 104.4375 137.914063 104.996094 137.757813 105.460938 C 137.5625 106.03125 137.28125 106.488281 136.917969 106.839844 C 136.644531 107.109375 136.273438 107.316406 135.808594 107.464844 C 135.460938 107.578125 134.996094 107.632813 134.410156 107.632813 L 131.441406 107.632813 Z M 133.019531 101.132813 L 133.019531 106.3125 L 134.199219 106.3125 C 134.636719 106.3125 134.957031 106.289063 135.152344 106.238281 C 135.410156 106.175781 135.621094 106.066406 135.789063 105.914063 C 135.960938 105.761719 136.097656 105.507813 136.203125 105.160156 C 136.308594 104.808594 136.363281 104.328125 136.363281 103.726563 C 136.363281 103.121094 136.308594 102.65625 136.203125 102.332031 C 136.097656 102.011719 135.949219 101.757813 135.757813 101.574219 C 135.5625 101.394531 135.320313 101.273438 135.023438 101.207031 C 134.804688 101.15625 134.371094 101.132813 133.726563 101.132813 L 133.019531 101.132813 "/>
<path style=" stroke:none;fill-rule:nonzero;fill:rgb(13.699341%,12.199402%,12.5%);fill-opacity:1;" d="M 139.289063 107.632813 L 139.289063 99.808594 L 140.867188 99.808594 L 140.867188 107.632813 L 139.289063 107.632813 "/>
<path style=" stroke:none;fill-rule:nonzero;fill:rgb(13.699341%,12.199402%,12.5%);fill-opacity:1;" d="M 145.402344 99.808594 L 148.289063 99.808594 C 148.941406 99.808594 149.4375 99.859375 149.777344 99.957031 C 150.238281 100.09375 150.628906 100.332031 150.957031 100.679688 C 151.285156 101.023438 151.535156 101.445313 151.703125 101.945313 C 151.875 102.445313 151.960938 103.0625 151.960938 103.796875 C 151.960938 104.4375 151.878906 104.996094 151.71875 105.460938 C 151.523438 106.03125 151.246094 106.488281 150.882813 106.839844 C 150.609375 107.109375 150.238281 107.316406 149.773438 107.464844 C 149.425781 107.578125 148.960938 107.632813 148.375 107.632813 L 145.402344 107.632813 Z M 146.980469 101.132813 L 146.980469 106.3125 L 148.160156 106.3125 C 148.601563 106.3125 148.921875 106.289063 149.117188 106.238281 C 149.371094 106.175781 149.585938 106.066406 149.753906 105.914063 C 149.925781 105.761719 150.0625 105.507813 150.167969 105.160156 C 150.273438 104.808594 150.328125 104.328125 150.328125 103.726563 C 150.328125 103.121094 150.273438 102.65625 150.167969 102.332031 C 150.0625 102.011719 149.910156 101.757813 149.71875 101.574219 C 149.527344 101.394531 149.28125 101.273438 148.988281 101.207031 C 148.765625 101.15625 148.335938 101.132813 147.691406 101.132813 L 146.980469 101.132813 "/>
<path style=" stroke:none;fill-rule:nonzero;fill:rgb(13.699341%,12.199402%,12.5%);fill-opacity:1;" d="M 160.355469 107.632813 L 158.636719 107.632813 L 157.953125 105.855469 L 154.824219 105.855469 L 154.179688 107.632813 L 152.503906 107.632813 L 155.550781 99.808594 L 157.222656 99.808594 Z M 157.445313 104.539063 L 156.367188 101.632813 L 155.3125 104.539063 Z M 157.445313 104.539063 "/>
<path style=" stroke:none;fill-rule:nonzero;fill:rgb(13.699341%,12.199402%,12.5%);fill-opacity:1;" d="M 161.144531 107.632813 L 161.144531 99.808594 L 162.722656 99.808594 L 162.722656 107.632813 L 161.144531 107.632813 "/>
<path style=" stroke:none;fill-rule:nonzero;fill:rgb(13.699341%,12.199402%,12.5%);fill-opacity:1;" d="M 164.269531 107.632813 L 164.269531 99.875 L 165.847656 99.875 L 165.847656 106.3125 L 169.777344 106.3125 L 169.777344 107.632813 L 164.269531 107.632813 "/>
<path style=" stroke:none;fill-rule:nonzero;fill:rgb(13.699341%,12.199402%,12.5%);fill-opacity:1;" d="M 171.953125 107.632813 L 171.953125 104.339844 L 169.089844 99.808594 L 170.9375 99.808594 L 172.78125 102.902344 L 174.585938 99.808594 L 176.402344 99.808594 L 173.527344 104.351563 L 173.527344 107.632813 L 171.953125 107.632813 "/>
</g>
</svg>
