<?xml version="1.0" standalone="no"?>
<!DOCTYPE svg PUBLIC "-//W3C//DTD SVG 20010904//EN"
 "http://www.w3.org/TR/2001/REC-SVG-20010904/DTD/svg10.dtd">
<svg version="1.0" xmlns="http://www.w3.org/2000/svg"
 width="512.000000pt" height="512.000000pt" viewBox="0 0 512.000000 512.000000"
 preserveAspectRatio="xMidYMid meet">
<metadata>
Created by potrace 1.16, written by Peter Selinger 2001-2019
</metadata>
<g transform="translate(0.000000,512.000000) scale(0.100000,-0.100000)"
fill="#000000" stroke="none">
<path d="M2909 3376 c-158 -28 -254 -72 -303 -139 -29 -39 -28 -106 2 -146 12
-16 22 -33 22 -36 0 -3 -214 -5 -475 -5 l-475 0 0 -34 c0 -34 1 -35 43 -38
l42 -3 5 -250 5 -250 29 -53 c55 -99 152 -152 279 -152 79 0 130 18 185 64
l32 28 0 -60 c0 -68 -12 -107 -42 -139 l-21 -23 153 0 c125 0 151 2 138 13
-48 39 -48 37 -48 444 l0 383 80 0 80 0 0 -376 c0 -389 -1 -395 -43 -441 l-20
-23 146 0 146 0 -24 36 -25 37 0 383 0 384 325 0 325 0 0 -183 c0 -174 -1
-185 -21 -203 -21 -19 -21 -18 -37 1 -173 211 -220 249 -307 249 -64 0 -126
-30 -188 -90 -26 -25 -47 -48 -47 -52 0 -4 29 -33 65 -65 l65 -59 55 50 c97
89 145 84 245 -26 38 -42 70 -79 69 -82 0 -3 -41 -39 -91 -80 -108 -90 -317
-266 -338 -286 -12 -12 2 -14 98 -14 l112 0 155 130 c86 72 158 130 160 130 3
0 5 -42 5 -94 0 -83 -3 -97 -25 -130 l-24 -36 152 0 c108 1 147 4 134 11 -9 5
-26 28 -37 49 -19 37 -20 59 -20 410 l0 370 255 0 255 0 0 -49 0 -50 -47 21
c-98 44 -226 18 -293 -58 -130 -148 -129 -442 1 -573 80 -80 203 -104 293 -56
25 13 46 22 46 19 0 -18 -31 -74 -47 -83 -13 -8 22 -10 137 -10 85 0 149 3
142 6 -7 3 -21 22 -32 44 -18 35 -20 59 -20 302 l0 265 40 36 c32 29 48 36 81
36 80 0 125 -51 150 -170 15 -70 6 -219 -17 -289 -10 -29 -33 -69 -51 -89 -32
-34 -35 -35 -89 -29 l-55 6 3 -42 c3 -37 6 -42 38 -50 46 -12 131 6 185 38 49
28 105 106 128 180 50 154 20 349 -68 454 -65 76 -212 106 -300 61 -22 -11
-41 -20 -42 -20 -2 0 -3 23 -3 50 l0 50 250 0 250 0 0 -365 c0 -384 -2 -408
-47 -457 -15 -17 -10 -18 130 -18 145 0 147 0 128 19 -37 37 -41 85 -41 459
l0 362 45 0 c45 0 45 0 45 35 l0 35 -715 0 c-393 0 -715 2 -715 5 0 2 9 19 20
37 23 39 25 76 6 121 -29 69 -117 121 -257 152 -100 23 -425 29 -530 11z m493
-85 c111 -36 161 -108 124 -180 -31 -59 -43 -61 -383 -61 -288 0 -310 1 -340
20 -53 32 -61 113 -16 162 57 63 169 88 383 84 137 -2 176 -6 232 -25z m-1104
-553 c-3 -215 -5 -247 -22 -281 -51 -104 -199 -124 -278 -39 -43 46 -48 80
-48 328 l0 234 175 0 176 0 -3 -242z m1823 63 l39 -39 0 -202 0 -202 -39 -39
c-33 -33 -45 -39 -81 -39 -90 0 -143 67 -162 204 -20 139 26 276 111 333 51
34 86 30 132 -16z"/>
<path d="M600 3354 c-121 -26 -216 -70 -322 -151 -77 -58 -139 -137 -189 -238
-40 -79 -40 -83 -25 -108 13 -19 27 -26 69 -30 45 -4 56 -2 86 22 210 165 402
254 620 286 52 8 99 19 104 24 10 10 -139 183 -173 201 -25 13 -91 11 -170 -6z"/>
<path d="M1060 3253 c0 -64 42 -113 98 -113 20 0 64 -7 97 -14 33 -8 61 -13
63 -12 6 7 -116 111 -172 148 -78 50 -86 49 -86 -9z"/>
<path d="M814 3085 c-38 -7 -97 -20 -130 -29 -94 -27 -273 -121 -370 -194 -81
-62 -89 -71 -90 -103 -1 -19 -4 -48 -8 -65 -6 -27 -1 -35 61 -95 75 -72 148
-128 239 -183 60 -36 61 -36 98 -21 22 9 50 13 69 10 31 -5 34 -2 84 72 94
142 158 288 203 462 l21 84 -25 26 c-14 15 -26 32 -26 39 0 15 -34 14 -126 -3z"/>
<path d="M1106 3075 c-17 -26 -17 -28 19 -97 75 -142 143 -374 161 -543 5 -51
13 -77 29 -97 13 -15 25 -33 27 -40 4 -10 14 -10 49 2 41 14 45 19 66 75 46
130 54 311 18 450 -18 69 -63 169 -91 202 -19 23 -114 53 -215 67 -42 6 -48 5
-63 -19z"/>
<path d="M1037 3010 c-3 -8 -17 -60 -31 -115 -48 -177 -134 -361 -226 -483
-34 -44 -38 -55 -30 -77 5 -14 20 -29 32 -34 45 -17 212 -41 285 -41 65 0 73
2 73 19 0 27 45 78 76 85 26 7 26 8 20 76 -17 172 -69 349 -145 497 -43 83
-49 91 -54 73z"/>
<path d="M43 2590 c-39 -53 -38 -80 8 -201 46 -119 167 -301 220 -330 28 -15
105 29 237 134 51 42 61 54 55 71 -3 12 -8 34 -9 49 -1 16 -4 30 -6 31 -1 1
-37 22 -78 47 -87 51 -162 109 -242 187 -53 51 -61 56 -104 57 -45 1 -49 -2
-81 -45z"/>
<path d="M733 2246 c-13 -22 -49 -36 -95 -36 -36 0 -50 -6 -73 -30 -16 -17
-74 -61 -128 -97 -92 -62 -98 -68 -81 -81 36 -27 110 -60 194 -87 71 -23 103
-28 200 -29 124 -1 183 10 290 54 63 26 173 91 184 109 3 4 8 34 12 65 6 49 5
56 -11 56 -9 0 -29 8 -43 19 -21 14 -54 20 -137 24 -60 4 -153 16 -205 27 -52
11 -96 20 -97 20 -1 0 -6 -6 -10 -14z"/>
</g>
</svg>
