<?xml version="1.0" standalone="no"?>
<!DOCTYPE svg PUBLIC "-//W3C//DTD SVG 20010904//EN"
 "http://www.w3.org/TR/2001/REC-SVG-20010904/DTD/svg10.dtd">
<svg version="1.0" xmlns="http://www.w3.org/2000/svg"
 width="650.000000pt" height="517.000000pt" viewBox="0 0 650.000000 517.000000"
 preserveAspectRatio="xMidYMid meet">
<metadata>
Created by potrace 1.16, written by Peter Selinger 2001-2019
</metadata>
<g transform="translate(0.000000,517.000000) scale(0.100000,-0.100000)"
fill="#000000" stroke="none">
<path d="M3045 4734 c-212 -23 -487 -126 -685 -257 -123 -82 -282 -225 -368
-332 -31 -38 -59 -72 -62 -75 -63 -60 -213 -319 -285 -495 -119 -288 -194
-641 -195 -913 l0 -72 323 2 322 3 7 137 c8 170 37 334 80 453 118 328 302
563 558 713 81 47 215 97 300 113 106 18 281 13 388 -13 59 -14 92 -27 92 -35
0 -8 -22 -104 -50 -215 -27 -110 -48 -204 -45 -208 3 -5 35 -23 70 -40 135
-66 244 -171 339 -329 90 -147 156 -353 156 -484 0 -107 -45 -97 430 -97 231
0 421 4 424 9 8 12 -11 208 -30 311 -29 159 -87 366 -132 471 -11 25 -17 50
-14 56 4 5 28 22 54 37 27 15 50 31 52 35 6 10 -85 215 -131 294 -103 179
-209 321 -329 441 -89 89 -226 206 -240 206 -4 0 -17 9 -28 19 -39 36 -221
131 -330 172 -174 65 -295 89 -476 93 -85 2 -173 2 -195 0z"/>
<path d="M372 2160 c-45 -26 -85 -50 -88 -53 -3 -3 28 -76 70 -161 42 -85 76
-157 76 -161 0 -11 -20 -4 -20 8 -1 10 -81 140 -107 172 -4 6 -28 41 -53 79
-25 38 -48 73 -51 79 -4 5 -44 -27 -90 -72 l-84 -82 93 -87 c51 -48 92 -90 92
-94 0 -4 -44 -9 -97 -10 l-97 -3 2 -75 c0 -41 1 -78 1 -82 1 -5 67 -8 147 -8
l145 0 -3 -37 c-3 -35 -6 -38 -43 -45 -94 -16 -180 -81 -225 -169 -19 -37 -22
-58 -22 -176 1 -155 12 -189 87 -265 76 -77 166 -108 266 -92 l62 10 22 -51
c13 -28 29 -70 36 -93 7 -23 15 -42 19 -42 11 0 119 61 125 71 4 5 -1 21 -9
36 -9 16 -27 54 -41 87 l-25 58 21 27 c77 97 62 256 -31 319 -62 42 -141 17
-182 -58 -16 -29 -19 -48 -14 -112 5 -70 3 -78 -12 -78 -82 0 -136 188 -81
280 54 91 142 123 232 85 45 -19 46 -16 45 127 l-1 113 74 0 c59 0 74 -3 75
-15 1 -8 2 -198 3 -422 l1 -408 95 0 95 0 0 425 0 425 220 0 220 0 0 -100 0
-100 -132 0 c-142 0 -174 -9 -219 -63 -25 -30 -49 -103 -49 -149 0 -54 33
-133 70 -168 107 -100 255 4 236 165 l-6 55 50 0 50 0 2 -242 3 -243 110 0
110 0 5 420 5 420 213 3 212 2 0 -289 c0 -286 0 -290 -21 -302 -28 -14 -66 12
-91 62 -27 53 -34 173 -15 240 21 72 49 102 88 94 l29 -7 0 55 c0 75 -6 85
-52 98 -127 34 -253 -62 -294 -223 -23 -87 -15 -233 16 -312 27 -70 89 -142
145 -167 48 -22 113 -24 160 -5 l35 15 0 -48 c0 -35 4 -51 16 -55 20 -8 188
-8 208 0 14 5 16 42 16 309 0 280 1 303 18 318 27 25 47 21 76 -13 34 -41 46
-89 46 -183 0 -114 -32 -177 -91 -177 l-29 0 0 -79 c0 -92 -1 -91 98 -91 104
0 160 41 214 157 26 55 32 81 36 162 9 203 -65 348 -197 387 -54 16 -97 13
-153 -11 -15 -6 -18 -2 -18 29 l0 36 190 0 190 0 0 85 0 85 -630 0 c-346 0
-630 3 -630 7 0 4 19 26 42 50 l41 42 -39 48 c-148 183 -313 277 -484 277 -95
0 -140 -17 -197 -74 -59 -58 -80 -181 -48 -286 8 -27 15 -52 15 -56 0 -5 -27
-8 -60 -8 -56 0 -60 2 -51 18 7 13 -1 62 -30 178 -57 228 -59 234 -67 233 -4
-1 -44 -23 -90 -49z m705 -176 c89 -30 233 -150 233 -193 0 -9 -49 -11 -200
-9 -199 3 -200 3 -225 29 -49 48 -38 150 18 177 33 16 120 14 174 -4z"/>
<path d="M2922 1698 l3 -83 313 -3 312 -2 0 -60 0 -60 -220 0 -220 0 0 -84 0
-83 40 -6 c23 -3 52 -13 66 -22 63 -41 85 -189 42 -275 -31 -61 -63 -78 -117
-61 -52 15 -89 68 -127 185 -31 95 -56 147 -79 166 -15 12 -25 6 -86 -56 -37
-38 -68 -73 -69 -78 0 -6 9 -19 20 -31 11 -12 45 -73 76 -136 85 -172 136
-225 245 -255 183 -48 336 46 385 236 27 107 1 243 -57 296 -31 28 -23 34 41
34 l60 0 2 -277 3 -278 110 0 110 0 5 420 5 420 28 3 27 3 0 -425 0 -426 108
0 c71 0 112 4 120 12 9 9 12 117 12 425 l0 413 94 0 c92 0 95 -1 119 -30 44
-51 70 -169 61 -271 -7 -66 -21 -89 -30 -51 -3 9 -21 28 -40 41 -47 33 -95 21
-138 -32 -27 -34 -31 -48 -34 -112 -4 -62 0 -82 18 -121 71 -145 280 -139 387
12 47 66 67 142 68 254 0 116 -16 180 -66 263 l-29 47 70 0 70 0 2 -422 3
-423 110 0 110 0 3 423 2 423 143 -3 142 -3 18 -38 c21 -42 24 -114 7 -149
-21 -40 -53 -68 -76 -68 -28 0 -74 20 -74 32 0 4 -6 8 -14 8 -8 0 -40 -43 -71
-95 l-56 -94 43 -83 c124 -240 268 -368 413 -368 38 0 67 5 73 12 10 13 62
195 62 217 0 6 -15 11 -33 11 -88 0 -218 65 -271 135 -33 42 -32 45 2 45 46 0
117 25 156 55 20 15 48 52 63 83 24 49 28 69 28 142 0 47 -4 102 -9 123 l-8
37 45 0 44 0 6 -192 c6 -219 17 -271 72 -335 19 -23 54 -51 78 -62 84 -41 218
-21 285 42 66 61 92 178 92 420 0 106 2 127 15 127 13 0 15 -56 17 -422 l3
-423 95 -3 c52 -2 105 0 118 3 l22 5 0 420 0 420 40 0 40 0 0 85 0 85 -1725 0
-1726 0 3 -82z m2878 -284 c0 -194 -6 -234 -35 -234 -29 0 -35 40 -35 234 l0
196 35 0 35 0 0 -196z"/>
</g>
</svg>
